<?xml version="1.0" encoding="utf-8"?>
<!-- Generator: Adobe Illustrator 19.0.0, SVG Export Plug-In . SVG Version: 6.00 Build 0)  -->
<svg version="1.1" id="Calque_1" xmlns="http://www.w3.org/2000/svg" xmlns:xlink="http://www.w3.org/1999/xlink" x="0px" y="0px"
	 viewBox="0 0 400 400" style="enable-background:new 0 0 400 400;" xml:space="preserve">
<style type="text/css">
	.st0{fill:none;stroke:#0000FF;stroke-width:2;stroke-miterlimit:10;}
</style>
<path id="XMLID_22_" class="st0" d="M312.3,113.5c-10-51.4-55.3-90.1-109.6-90.1C141,23.4,91,73.4,91,135.1
	C91,211.7,200.3,385,200.3,385s104.7-176.3,112-228.4c1-7,1.5-14.2,1.5-21.5C313.8,127.8,313.3,120.6,312.3,113.5z M202.7,89.6
	c25.1,0,45.5,20.4,45.5,45.5c0,25.1-20.4,45.5-45.5,45.5s-45.5-20.4-45.5-45.5C157.2,110,177.6,89.6,202.7,89.6z"/>
</svg>
