<?xml version="1.0" encoding="utf-8"?>
<!-- Generator: Adobe Illustrator 19.0.0, SVG Export Plug-In . SVG Version: 6.00 Build 0)  -->
<svg version="1.1" id="Calque_1" xmlns="http://www.w3.org/2000/svg" xmlns:xlink="http://www.w3.org/1999/xlink" x="0px" y="0px"
	 viewBox="0 0 400 400" style="enable-background:new 0 0 400 400;" xml:space="preserve">
<style type="text/css">
	.st0{fill:none;stroke:#0000FF;stroke-width:2;stroke-miterlimit:10;}
</style>
<path id="XMLID_22_" class="st0" d="M206.3,385"/>
<path id="XMLID_15_" class="st0" d="M371,93.3v219.3c0,6.6-4.4,12.3-11,12.3H52.6C46,325,40,319.3,40,312.7V93.3
	c0-2.3,1-4.5,2.2-6.3L206,203l0.1,0l0.1,0L369.6,87C370.8,88.8,371,91,371,93.3z"/>
<path id="XMLID_12_" class="st0" d="M369.9,87L206.2,203l0,0L369.8,86.8C369.8,86.9,369.8,86.9,369.9,87z"/>
<path id="XMLID_14_" class="st0" d="M370,86.8l-0.2,0.1L206.2,203l0,0L42.5,87c0.1-0.2,0.2-0.3,0.3-0.5c0,0,0,0,0,0
	c0.2-0.3,0.5-0.3,0.8-0.6c2.2-2.5,5.5-3.8,9.1-3.8H360c3.6,0,6.9,1.3,9.1,3.8c0.3,0.3,0.5,0.5,0.8,0.8C369.9,86.7,370,86.7,370,86.8
	z"/>
</svg>
