<?xml version="1.0" encoding="utf-8"?>
<!-- Generator: Adobe Illustrator 19.0.0, SVG Export Plug-In . SVG Version: 6.00 Build 0)  -->
<svg version="1.1" id="Calque_1" xmlns="http://www.w3.org/2000/svg" xmlns:xlink="http://www.w3.org/1999/xlink" x="0px" y="0px"
	 viewBox="0 0 400 400" style="enable-background:new 0 0 400 400;" xml:space="preserve">
<style type="text/css">
	.st0{fill:url(#XMLID_2_);}
	.st1{fill:url(#XMLID_3_);}
	.st2{fill:url(#XMLID_4_);}
</style>
<g id="XMLID_6_">
	<linearGradient id="XMLID_2_" gradientUnits="userSpaceOnUse" x1="50.936" y1="105.2599" x2="350.2545" y2="105.2599">
		<stop  offset="0" style="stop-color:#1541A7"/>
		<stop  offset="1" style="stop-color:#3B15A7"/>
	</linearGradient>
	<path id="XMLID_29_" class="st0" d="M207.2,30.7c6.3,0.4,12.7,0.6,18.9,1.4c12.4,1.6,24.9,2.9,37.1,5.5c9.9,2.1,19.7,5.2,29.1,8.8
		c7.5,2.8,14.6,6.8,21.5,10.8c5.8,3.3,11.6,7,16.7,11.3c4.3,3.6,7.7,8.3,11.2,12.7c5.4,6.7,8,14.5,8.4,23c0.3,7-1.7,13.5-4.7,19.7
		c-3.9,8.1-9.9,14.3-16.6,20.2c-9.8,8.5-21,14.1-32.8,19c-9.4,3.9-18.9,7.4-29,9.2c-9.2,1.6-18.4,3-27.6,4.7
		c-22.1,4.1-44.4,2.9-66.6,1.7c-11.9-0.7-23.8-2.7-35.5-5.2c-9.9-2.1-19.8-5.1-29.2-8.8c-9.6-3.9-19.1-8.5-27.8-14.2
		c-6.9-4.5-13.4-10.3-18.5-16.7c-9.2-11.5-14-24.8-9.1-39.8c2.9-8.8,7.5-16.6,14.9-22.5C73,67.2,78,62.5,83.6,59.1
		c7-4.2,14.6-7.4,21.9-11c9.2-4.4,18.9-7.4,28.9-9.3c8.8-1.7,17.7-3.6,26.6-4.7c10-1.3,20.1-1.9,30.2-2.9c1-0.1,1.9-0.3,2.9-0.5
		C198.5,30.7,202.8,30.7,207.2,30.7z"/>
	<linearGradient id="XMLID_3_" gradientUnits="userSpaceOnUse" x1="50.8974" y1="305.3518" x2="350.4229" y2="305.3518">
		<stop  offset="0" style="stop-color:#1541A7"/>
		<stop  offset="1" style="stop-color:#3B15A7"/>
	</linearGradient>
	<path id="XMLID_28_" class="st1" d="M51,244.1c1.9,4.5,3.1,9.3,5.7,13.3c3.3,5.1,7.1,10,11.5,14.3c7.2,7.1,15.6,12.7,24.8,16.8
		c7.3,3.3,14.6,6.3,22,9.3c13.7,5.5,28.1,7.7,42.6,10c23,3.6,46.1,3.4,69.2,1.9c12.6-0.9,25.1-2.8,37.4-5.3
		c10.2-2.1,20.3-5.3,30-9.2c9.2-3.7,18.1-8.2,26.4-13.6c8.4-5.4,16.1-11.8,21.6-20.6c3.4-5.4,5.9-10.9,8.1-16.9c0,1.1,0,2.2,0,3.3
		c0,14.2-0.2,28.4,0.1,42.6c0.2,8.8-2.2,16.9-6.4,24.2c-3.7,6.5-8.8,12.2-15.1,16.5c-4.3,3-8.3,6.5-12.8,9.1
		c-6,3.5-12.4,6.6-18.8,9.5c-5.9,2.6-11.9,5.1-18.1,6.8c-11.5,3.3-23.2,5.4-35,7.2c-27.6,4.3-55.3,3.6-82.9,0.9
		c-8.5-0.8-16.9-2.7-25.3-4.4c-5.7-1.2-11.5-2.5-16.9-4.5c-8.7-3.3-17.3-7.1-25.8-11c-4.3-2-8.7-4.1-12.5-6.9
		c-5.4-4-10.7-8.3-15.4-13c-9.8-9.7-14.8-21.5-14.5-35.6c0.3-13.8,0.1-27.6,0.1-41.3C51,246.5,51,245.3,51,244.1z"/>
	<linearGradient id="XMLID_4_" gradientUnits="userSpaceOnUse" x1="50.9436" y1="211.5651" x2="350.4206" y2="211.5651">
		<stop  offset="0" style="stop-color:#1541A7"/>
		<stop  offset="1" style="stop-color:#3B15A7"/>
	</linearGradient>
	<path id="XMLID_27_" class="st2" d="M350.3,150.2c0,0.9,0,1.9,0,2.8c0,14.7-0.2,29.3,0.1,44c0.1,8.7-2.3,16.8-6.7,23.8
		c-3.9,6.1-9.7,11-14.9,16.2c-7.3,7.4-16.7,11.7-25.7,16.3c-6.1,3.1-12.8,5.3-19.4,7.4c-5.3,1.8-10.8,3.3-16.3,4.4
		c-9.7,1.9-19.4,3.4-29.2,5c-23.5,4-47,2.9-70.5,1.1c-9.5-0.7-19-2.3-28.3-4.5c-10.4-2.4-20.9-5.2-30.8-9.1
		c-9.4-3.6-18.5-8.3-27-13.6c-8.6-5.4-16.2-12.1-22.1-20.8c-5.6-8.3-8.5-17.1-8.5-27c0.1-15.3,0-30.6,0-45.9c2,4.7,3.4,9.5,6,13.7
		c2.8,4.5,6.2,8.8,10,12.6c7.5,7.6,16.3,13.7,26.1,18.1c8.2,3.7,16.6,7.3,25.1,10.3c15,5.4,30.6,7.6,46.4,9.7
		c22.5,3,44.9,2.4,67.3,0.9c10.1-0.7,20.1-2.4,30-4.6c10.3-2.3,20.5-5.4,30.5-9c10-3.5,19.7-8,28.2-14.2
		c6.8-4.9,13.2-10.7,18.9-16.8C344.8,165.2,348,157.9,350.3,150.2z"/>
</g>
</svg>
