<?xml version="1.0" encoding="utf-8"?>
<!-- Generator: Adobe Illustrator 19.0.0, SVG Export Plug-In . SVG Version: 6.00 Build 0)  -->
<svg version="1.1" xmlns="http://www.w3.org/2000/svg" xmlns:xlink="http://www.w3.org/1999/xlink" x="0px" y="0px"
	 viewBox="0 0 960 560" style="enable-background:new 0 0 960 560;" xml:space="preserve">
<style type="text/css">
	.st0{opacity:0.5;}
	.st1{stroke:url(#XMLID_6_);stroke-miterlimit:10;}
	.st2{stroke:url(#XMLID_7_);stroke-miterlimit:10;}
	.st3{stroke:url(#XMLID_8_);stroke-miterlimit:10;}
	.st4{stroke:url(#XMLID_9_);stroke-miterlimit:10;}
	.st5{stroke:url(#XMLID_10_);stroke-miterlimit:10;}
	.st6{fill:url(#XMLID_11_);}
	.st7{fill:url(#XMLID_12_);}
	.st8{fill:url(#XMLID_15_);stroke:url(#XMLID_18_);stroke-miterlimit:10;}
	.st9{fill:url(#XMLID_19_);}
	.st10{fill:#3100AA;stroke:url(#XMLID_20_);stroke-miterlimit:10;}
	.st11{fill:#3100AA;stroke:url(#XMLID_21_);stroke-miterlimit:10;}
	.st12{fill:none;stroke:url(#XMLID_22_);stroke-miterlimit:10;}
	.st13{fill:url(#XMLID_23_);}
	.st14{fill:url(#XMLID_24_);stroke:url(#XMLID_25_);stroke-miterlimit:10;}
	.st15{fill:url(#XMLID_27_);}
	.st16{fill:none;}
</style>
<g id="Calque_2" class="st0">
	<polygon id="XMLID_40_" points="321.6,211.5 290.5,327 282,327 272.7,290.9 300.3,176 	"/>
	<polygon id="XMLID_39_" points="239,259.7 236.8,251.7 216.6,327 211.8,327 201.4,290.8 222.7,211 225.9,211 	"/>
	<linearGradient id="XMLID_6_" gradientUnits="userSpaceOnUse" x1="225.2881" y1="269.5" x2="282.6142" y2="269.5">
		<stop  offset="0" style="stop-color:#1542A7"/>
		<stop  offset="1" style="stop-color:#3B16A7"/>
	</linearGradient>
	<polygon id="XMLID_38_" class="st1" points="282,327.5 257.5,327.5 239,260.2 225.9,211.5 252.4,211.5 270,280.4 270,280.7 
		270.1,280.9 272.7,291 272.7,291.2 	"/>
	<polygon id="XMLID_37_" points="211.8,327 183.7,327 143.7,176 183.7,211.5 201.4,291 	"/>
	<linearGradient id="XMLID_7_" gradientUnits="userSpaceOnUse" x1="333.0737" y1="283.2434" x2="426.2437" y2="283.2434">
		<stop  offset="0" style="stop-color:#1542A7"/>
		<stop  offset="0.3152" style="stop-color:#1D39A7"/>
		<stop  offset="0.8377" style="stop-color:#331FA7"/>
		<stop  offset="1" style="stop-color:#3B16A7"/>
	</linearGradient>
	<path id="XMLID_34_" class="st2" d="M425.7,288.6h-63.9c0.4,6.8,3,12.1,7.8,15.7c4.8,3.6,11.8,5.4,21.1,5.4
		c5.9,0,11.6-1.1,17.1-3.2c5.5-2.1,9.9-4.4,13.1-6.8h3.1v22.4c-6.3,2.5-12.3,4.4-17.8,5.5c-5.6,1.1-11.8,1.7-18.5,1.7
		c-17.5,0-30.9-3.9-40.2-11.8c-9.3-7.9-14-19.1-14-33.6c0-14.4,4.4-25.8,13.2-34.2c8.8-8.4,20.9-12.6,36.3-12.6
		c14.2,0,24.8,3.6,32,10.7c7.1,7.2,10.7,17.5,10.7,30.9V288.6z M398,272.2c-0.2-5.8-1.6-10.2-4.3-13.2c-2.7-2.9-7-4.4-12.8-4.4
		c-5.4,0-9.8,1.4-13.3,4.2c-3.5,2.8-5.4,7.3-5.8,13.4H398z"/>
	<linearGradient id="XMLID_8_" gradientUnits="userSpaceOnUse" x1="444.9497" y1="251.965" x2="536.877" y2="251.965">
		<stop  offset="0" style="stop-color:#1542A7"/>
		<stop  offset="0.3152" style="stop-color:#1D39A7"/>
		<stop  offset="0.8377" style="stop-color:#331FA7"/>
		<stop  offset="1" style="stop-color:#3B16A7"/>
	</linearGradient>
	<path id="XMLID_31_" class="st3" d="M536.4,282.2c0,13.7-3.8,24.9-11.4,33.5c-7.6,8.6-17,13-28.3,13c-4.9,0-9.1-0.5-12.8-1.6
		c-3.7-1-7.2-2.5-10.5-4.5l-1.2,4.3h-26.8V176l28,30.3V249c4.3-3.4,8.7-6.2,13.1-8.3c4.5-2.1,9.6-3.2,15.5-3.2
		c11,0,19.5,4,25.4,11.9C533.4,257.3,536.4,268.3,536.4,282.2z M507.6,282.8c0-7.7-1.3-13.7-3.9-17.9c-2.6-4.2-7.3-6.3-14.1-6.3
		c-2.6,0-5.3,0.4-8.1,1.2s-5.4,1.9-8,3.4V307c2,0.7,3.9,1.2,5.7,1.5c1.8,0.3,4,0.4,6.5,0.4c7.4,0,12.9-2.2,16.5-6.5
		C505.8,298,507.6,291.5,507.6,282.8z"/>
	<linearGradient id="XMLID_9_" gradientUnits="userSpaceOnUse" x1="551.3945" y1="275.6399" x2="611.5918" y2="275.6399">
		<stop  offset="0" style="stop-color:#1542A7"/>
		<stop  offset="0.3152" style="stop-color:#1D39A7"/>
		<stop  offset="0.8377" style="stop-color:#331FA7"/>
		<stop  offset="1" style="stop-color:#3B16A7"/>
	</linearGradient>
	<path id="XMLID_26_" class="st4" d="M611.1,286.8h-59.2v-22.3h59.2V286.8z"/>
	<path id="XMLID_17_" d="M695,211v82.1c0,5.1-1.1,9.8-2.9,14.2c-1.8,4.4-4.6,8.2-8.2,11.2c-3.8,3.3-8.4,5.8-13.7,7.6
		c-5.3,1.8-11.9,2.7-19.8,2.7c-5.3,0-10.3-0.2-15-0.6c-4.7-0.4-9.4-0.9-12.4-1.7V303h2.7c2.5,1,5.1,1.9,7.8,2.7
		c2.7,0.8,6.1,1.2,10.3,1.2c5.4,0,9.6-0.7,12.5-2.1c2.9-1.5,5-3.5,6.3-6c1.2-2.5,2-5.3,2.1-8.3c0.2-3,0.3-6.9,0.3-11.6V233h-27v-22
		H695z"/>
	<linearGradient id="XMLID_10_" gradientUnits="userSpaceOnUse" x1="720" y1="284" x2="749" y2="284">
		<stop  offset="0" style="stop-color:#1542A7"/>
		<stop  offset="0.3152" style="stop-color:#1D39A7"/>
		<stop  offset="0.8377" style="stop-color:#331FA7"/>
		<stop  offset="1" style="stop-color:#3B16A7"/>
	</linearGradient>
	<path id="XMLID_14_" class="st5" d="M720.5,240.5v87h28v-87H720.5z"/>
	<polygon id="XMLID_13_" points="749.8,227 720,227 720,206.3 734.9,216.6 	"/>
	<line id="XMLID_4_" x1="285" y1="338.8" x2="282" y2="327"/>
	<line id="XMLID_3_" x1="272.7" y1="290.9" x2="270.1" y2="280.8"/>
	<line id="XMLID_2_" x1="270" y1="280.6" x2="270" y2="280.4"/>
	<line id="XMLID_1_" x1="225.9" y1="211" x2="223.3" y2="201"/>
</g>
<g id="Calque_1">
	<linearGradient id="XMLID_11_" gradientUnits="userSpaceOnUse" x1="264.67" y1="246.5" x2="313.63" y2="246.5">
		<stop  offset="0" style="stop-color:#1542A7"/>
		<stop  offset="1" style="stop-color:#3B16A7"/>
	</linearGradient>
	<polygon id="XMLID_61_" class="st6" points="313.6,206.5 282.5,322 274,322 264.7,285.9 292.3,171 	"/>
	<linearGradient id="XMLID_12_" gradientUnits="userSpaceOnUse" x1="193.39" y1="264" x2="231.01" y2="264">
		<stop  offset="0" style="stop-color:#1542A7"/>
		<stop  offset="1" style="stop-color:#3B16A7"/>
	</linearGradient>
	<polygon id="XMLID_60_" class="st7" points="231,254.7 228.8,246.7 208.6,322 203.8,322 193.4,285.8 214.7,206 217.9,206 	"/>
	<linearGradient id="XMLID_15_" gradientUnits="userSpaceOnUse" x1="217.94" y1="264.5" x2="273.97" y2="264.5">
		<stop  offset="0" style="stop-color:#1542A7"/>
		<stop  offset="1" style="stop-color:#3B16A7"/>
	</linearGradient>
	<linearGradient id="XMLID_18_" gradientUnits="userSpaceOnUse" x1="217.2881" y1="264.5" x2="274.6142" y2="264.5">
		<stop  offset="0" style="stop-color:#1542A7"/>
		<stop  offset="1" style="stop-color:#3B16A7"/>
	</linearGradient>
	<polygon id="XMLID_59_" class="st8" points="274,322.5 249.5,322.5 231,255.2 217.9,206.5 244.4,206.5 262,275.4 262,275.7 
		262.1,275.9 264.7,286 264.7,286.2 	"/>
	<linearGradient id="XMLID_19_" gradientUnits="userSpaceOnUse" x1="135.67" y1="246.5" x2="203.83" y2="246.5">
		<stop  offset="0" style="stop-color:#1542A7"/>
		<stop  offset="1" style="stop-color:#3B16A7"/>
	</linearGradient>
	<polygon id="XMLID_58_" class="st9" points="203.8,322 175.7,322 135.7,171 175.7,206.5 193.4,286 	"/>
	<linearGradient id="XMLID_20_" gradientUnits="userSpaceOnUse" x1="325.0737" y1="278.2434" x2="418.2437" y2="278.2434">
		<stop  offset="0" style="stop-color:#1542A7"/>
		<stop  offset="0.3152" style="stop-color:#1D39A7"/>
		<stop  offset="0.8377" style="stop-color:#331FA7"/>
		<stop  offset="1" style="stop-color:#3B16A7"/>
	</linearGradient>
	<path id="XMLID_55_" class="st10" d="M417.7,283.6h-63.9c0.4,6.8,3,12.1,7.8,15.7c4.8,3.6,11.8,5.4,21.1,5.4
		c5.9,0,11.6-1.1,17.1-3.2c5.5-2.1,9.9-4.4,13.1-6.8h3.1v22.4c-6.3,2.5-12.3,4.4-17.8,5.5c-5.6,1.1-11.8,1.7-18.5,1.7
		c-17.5,0-30.9-3.9-40.2-11.8c-9.3-7.9-14-19.1-14-33.6c0-14.4,4.4-25.8,13.2-34.2c8.8-8.4,20.9-12.6,36.3-12.6
		c14.2,0,24.8,3.6,32,10.7c7.1,7.2,10.7,17.5,10.7,30.9V283.6z M390,267.2c-0.2-5.8-1.6-10.2-4.3-13.2c-2.7-2.9-7-4.4-12.8-4.4
		c-5.4,0-9.8,1.4-13.3,4.2c-3.5,2.8-5.4,7.3-5.8,13.4H390z"/>
	<linearGradient id="XMLID_21_" gradientUnits="userSpaceOnUse" x1="436.9497" y1="246.965" x2="528.877" y2="246.965">
		<stop  offset="0" style="stop-color:#1542A7"/>
		<stop  offset="0.3152" style="stop-color:#1D39A7"/>
		<stop  offset="0.8377" style="stop-color:#331FA7"/>
		<stop  offset="1" style="stop-color:#3B16A7"/>
	</linearGradient>
	<path id="XMLID_52_" class="st11" d="M528.4,277.2c0,13.7-3.8,24.9-11.4,33.5c-7.6,8.6-17,13-28.3,13c-4.9,0-9.1-0.5-12.8-1.6
		c-3.7-1-7.2-2.5-10.5-4.5l-1.2,4.3h-26.8V171l28,30.3V244c4.3-3.4,8.7-6.2,13.1-8.3c4.5-2.1,9.6-3.2,15.5-3.2
		c11,0,19.5,4,25.4,11.9C525.4,252.3,528.4,263.3,528.4,277.2z M499.6,277.8c0-7.7-1.3-13.7-3.9-17.9c-2.6-4.2-7.3-6.3-14.1-6.3
		c-2.6,0-5.3,0.4-8.1,1.2s-5.4,1.9-8,3.4V302c2,0.7,3.9,1.2,5.7,1.5c1.8,0.3,4,0.4,6.5,0.4c7.4,0,12.9-2.2,16.5-6.5
		C497.8,293,499.6,286.5,499.6,277.8z"/>
	<linearGradient id="XMLID_22_" gradientUnits="userSpaceOnUse" x1="543.3945" y1="270.6399" x2="603.5918" y2="270.6399">
		<stop  offset="0" style="stop-color:#1542A7"/>
		<stop  offset="0.3152" style="stop-color:#1D39A7"/>
		<stop  offset="0.8377" style="stop-color:#331FA7"/>
		<stop  offset="1" style="stop-color:#3B16A7"/>
	</linearGradient>
	<path id="XMLID_50_" class="st12" d="M603.1,281.8h-59.2v-22.3h59.2V281.8z"/>
	<linearGradient id="XMLID_23_" gradientUnits="userSpaceOnUse" x1="615" y1="264.895" x2="687" y2="264.895">
		<stop  offset="0" style="stop-color:#1542A7"/>
		<stop  offset="1" style="stop-color:#3B16A7"/>
	</linearGradient>
	<path id="XMLID_49_" class="st13" d="M687,206v82.1c0,5.1-1.1,9.8-2.9,14.2c-1.8,4.4-4.6,8.2-8.2,11.2c-3.8,3.3-8.4,5.8-13.7,7.6
		c-5.3,1.8-11.9,2.7-19.8,2.7c-5.3,0-10.3-0.2-15-0.6c-4.7-0.4-9.4-0.9-12.4-1.7V298h2.7c2.5,1,5.1,1.9,7.8,2.7
		c2.7,0.8,6.1,1.2,10.3,1.2c5.4,0,9.6-0.7,12.5-2.1c2.9-1.5,5-3.5,6.3-6c1.2-2.5,2-5.3,2.1-8.3c0.2-3,0.3-6.9,0.3-11.6V228h-27v-22
		H687z"/>
	<linearGradient id="XMLID_24_" gradientUnits="userSpaceOnUse" x1="712.5" y1="279" x2="740.5" y2="279">
		<stop  offset="0" style="stop-color:#1542A7"/>
		<stop  offset="0.3152" style="stop-color:#1D39A7"/>
		<stop  offset="0.8377" style="stop-color:#331FA7"/>
		<stop  offset="1" style="stop-color:#3B16A7"/>
	</linearGradient>
	<linearGradient id="XMLID_25_" gradientUnits="userSpaceOnUse" x1="712" y1="279" x2="741" y2="279">
		<stop  offset="0" style="stop-color:#1542A7"/>
		<stop  offset="0.3152" style="stop-color:#1D39A7"/>
		<stop  offset="0.8377" style="stop-color:#331FA7"/>
		<stop  offset="1" style="stop-color:#3B16A7"/>
	</linearGradient>
	<path id="XMLID_47_" class="st14" d="M712.5,235.5v87h28v-87H712.5z"/>
	<linearGradient id="XMLID_27_" gradientUnits="userSpaceOnUse" x1="712" y1="211.64" x2="741.81" y2="211.64">
		<stop  offset="0" style="stop-color:#1542A7"/>
		<stop  offset="1" style="stop-color:#3B16A7"/>
	</linearGradient>
	<polygon id="XMLID_46_" class="st15" points="741.8,222 712,222 712,201.3 726.9,211.6 	"/>
	<line id="XMLID_45_" class="st16" x1="277" y1="333.8" x2="274" y2="322"/>
	<line id="XMLID_44_" class="st16" x1="264.7" y1="285.9" x2="262.1" y2="275.8"/>
	<line id="XMLID_43_" class="st16" x1="262" y1="275.6" x2="262" y2="275.4"/>
	<line id="XMLID_42_" class="st16" x1="217.9" y1="206" x2="215.3" y2="196"/>
</g>
</svg>
