<?xml version="1.0" encoding="utf-8"?>
<!-- Generator: Adobe Illustrator 19.0.0, SVG Export Plug-In . SVG Version: 6.00 Build 0)  -->
<svg version="1.1" id="Calque_1" xmlns="http://www.w3.org/2000/svg" xmlns:xlink="http://www.w3.org/1999/xlink" x="0px" y="0px"
	 viewBox="0 0 400 400" style="enable-background:new 0 0 400 400;" xml:space="preserve">
<style type="text/css">
	.st0{fill:none;stroke:#0000FF;stroke-width:2;stroke-miterlimit:10;}
</style>
<g id="XMLID_6_">
	<path id="XMLID_24_" class="st0" d="M354,267.4v64.5c0,0.2-0.1,0.3-0.2,0.5c-0.4,1-0.8,1.9-1.2,2.8c-0.1,0.3-0.2,0.5-0.3,0.8
		c-0.1,0.2-0.1,0.3-0.2,0.5c-0.1,0.2-0.2,0.3-0.3,0.5c-0.1,0.2-0.2,0.4-0.3,0.6c-1.3,2.2-2.9,4.2-5.4,5.5c-1.5,0.8-3.2,1.7-4.8,2.6
		c-0.1,0.1-0.3-0.5-0.4,0.4h-8.8c-0.1,0-0.2-0.2-0.3-0.3c-0.1,0-0.1-0.1-0.2-0.1c-0.2,0-0.4-0.1-0.7-0.2c-0.3-0.1-0.6-0.2-1-0.3
		c-0.2-0.1-0.5-0.1-0.7-0.1c-1.1-0.1-2.2-0.2-3.2-0.3c-7.5-0.7-15.1-1.3-22.6-2.3c-8.9-1.2-17.8-2.8-26.6-4.4
		c-5.3-1-10.6-2.3-15.7-3.9c-9.8-3-19.4-6.3-29.1-9.4c-0.7-0.2-1.3-0.4-2-0.6c-0.3-0.1-0.6-0.2-0.8-0.3c-0.3-0.1-0.5-0.2-0.8-0.2
		c0,0-0.1,0-0.1,0c-0.2-0.1-0.4-0.2-0.6-0.2c-0.3-0.1-0.6-0.2-0.9-0.4c-6.6-3.2-13.1-6.4-19.6-9.7c-4.7-2.3-9.3-4.7-13.9-7.2
		c-2.3-1.2-4.5-2.6-6.6-4.1c-4.8-3.3-9.6-6.5-14.3-9.9c-4.7-3.4-9.5-6.9-14-10.6c-3.6-3-6.9-6.3-10.3-9.5c-6-5.7-12-11.4-17.8-17.2
		c-2.6-2.6-4.9-5.7-7.3-8.5c-3.2-3.7-6.6-7.2-9.6-11c-3.7-4.8-7.1-9.8-10.5-14.8c-3.4-5-6.8-10-9.8-15.1c-2.7-4.5-5-9.2-7.3-13.8
		c-3.5-7-7.1-14-10.1-21.3c-2.9-7-5.6-14.1-7.8-21.4c-3-10.2-6-20.4-7.9-30.9c-0.3-1.6-0.6-3.2-0.8-4.9c-1.6-9.4-2.7-18.9-3.9-28.3
		c-0.2-1.4-0.3-2.7-0.5-4.1c-0.1-0.6-0.1-1.1-0.2-1.7c-0.2-2.4-0.3-4.8-0.5-7.2c-0.1-0.9-0.4-1.8-0.5-2.7c-0.1-0.9,0.3-1.8-0.7-2.7
		v-7.6c0.9-0.7,0.8-1.5,1.2-2.2c0.3-0.7,0.7-1.3,1.1-2c0.4-0.7,0.8-1.4,1.2-2c0.1-0.2,0.3-0.4,0.4-0.6c0,0,0,0,0,0
		c0.2-0.2,0.3-0.5,0.5-0.7c0-0.1,0.1-0.1,0.2-0.2c0.1-0.1,0.2-0.2,0.3-0.3c0.2-0.3,0.5-0.6,0.8-0.9c0.1-0.1,0.1-0.1,0.2-0.2
		c0.3-0.3,0.7-0.7,1.1-1c0.2-0.2,0.5-0.4,0.7-0.5c0.3-0.2,0.6-0.4,1-0.6c1.9-1,4.3-1.6,6.3-2.6h62.7c2.6,2,5.4,2.2,7.8,3.6
		c4.7,2.8,6.6,7.4,6.8,12.8c0.3,7.7,0.3,15.5,1.3,23.1c1.1,8.7,2.9,17.4,4.7,26c0.9,4.2,2.6,8.3,3.5,12.5c1.2,5.5,0.2,10.5-4,14.7
		c-4.9,4.8-9.5,10-14.3,14.9c-3.6,3.6-7.4,6.9-11,10.5c-3.8,3.9-7.5,7.9-11.4,12c2.5,4.5,4.8,9.3,7.5,13.8
		c3.3,5.3,6.8,10.4,10.4,15.5c3.3,4.7,6.6,9.5,10.1,14c2.9,3.8,6.1,7.4,9.4,10.9c3.2,3.5,6.5,6.9,9.9,10.3c3.6,3.5,7.1,7,10.9,10.3
		c3.8,3.3,7.8,6.5,11.8,9.6c3.1,2.4,6.3,4.7,9.5,7c3.3,2.4,6.7,4.8,10.1,7c3.3,2.1,6.7,4.1,10.2,6.1c3.4,1.9,6.9,3.8,10.6,5.8
		c4.5-4.6,8.9-9.2,13.4-13.7c3.6-3.6,7.4-6.9,11-10.5c3.4-3.4,6.6-6.9,9.9-10.4c5.4-5.7,11.8-8.1,19.7-6c8.9,2.3,17.9,4.1,26.8,6.4
		c9.9,2.5,20,2.7,30.1,2.8c4.7,0,9.2,0.7,12.8,3.8c1.9,1.7,3.3,4.2,4.7,6.4C353.3,265.1,353,266.3,354,267.4z"/>
	<path id="XMLID_12_" class="st0" d="M54.6,80.7c1.3,10.8,2.6,21.7,4.4,32.4c-1.8-10.7-3.4-21.6-4.7-32.4c-0.5-3.8-0.3-7.7-1.2-11.5
		v-2.7C53.9,71.2,54,75.9,54.6,80.7z"/>
	<path id="XMLID_13_" class="st0" d="M332.2,346H331c-0.6,0-1.1-0.7-1.7-0.7c-8.6-0.8-17.2-1.6-25.8-2.7c-8.9-1.2-17.8-2.8-26.6-4.5
		c-5.3-1-10.6-2.3-15.7-3.9c-9.8-3-19.4-6.3-29.1-9.5c-0.7-0.2-1.3-0.4-2-0.6c0.7,0.2,1.3,0.4,2,0.6c9.7,3.2,19.4,6.5,29.1,9.4
		c5.2,1.6,10.4,2.9,15.7,3.8c8.8,1.7,17.7,3.2,26.6,4.4c8.6,1.1,17.2,2,25.8,2.9C330.3,345.2,331.3,346,332.2,346z"/>
	<path id="XMLID_11_" class="st0" d="M68,45c-2,1-4.6,1.6-6.5,2.6c-4.3,2.4-6.5,6.6-8.4,11.2v-1c1.9-4.2,4.2-8.2,8.2-10.4
		c1.6-0.9,4-1.4,5.8-2.4H68z"/>
	<path id="XMLID_15_" class="st0" d="M351.5,337.5c-1.3,2.2-2.9,4.5-5.4,5.8c-1.5,0.8-3.2,1.8-4.8,2.7H341c1.7-0.9,3.4-1.9,5-2.8
		C348.5,341.9,350.2,339.7,351.5,337.5z"/>
	<path id="XMLID_16_" class="st0" d="M354,331.8v0.5c-1,1-0.8,1.9-1.2,2.8C353.2,334.1,353,333,354,331.8z"/>
</g>
</svg>
