<?xml version="1.0" encoding="utf-8"?>
<!-- Generator: Adobe Illustrator 19.0.0, SVG Export Plug-In . SVG Version: 6.00 Build 0)  -->
<svg version="1.1" id="Calque_1" xmlns="http://www.w3.org/2000/svg" xmlns:xlink="http://www.w3.org/1999/xlink" x="0px" y="0px"
	 viewBox="0 0 400 400" style="enable-background:new 0 0 400 400;" xml:space="preserve">
<style type="text/css">
	.st0{fill:url(#XMLID_2_);}
	.st1{fill:url(#XMLID_3_);}
	.st2{fill:url(#XMLID_4_);}
	.st3{fill:url(#XMLID_5_);}
	.st4{fill:url(#XMLID_7_);}
</style>
<g id="XMLID_6_">
	<linearGradient id="XMLID_2_" gradientUnits="userSpaceOnUse" x1="32.6732" y1="199.6894" x2="377.2653" y2="199.6894">
		<stop  offset="0" style="stop-color:#1541A7"/>
		<stop  offset="1" style="stop-color:#3B15A7"/>
	</linearGradient>
	<path id="XMLID_52_" class="st0" d="M32.7,280.5c0-64,0-127.9,0-191.9c1.6-4.5,2.9-9.2,4.8-13.6c2.6-5.9,7.4-9.7,12.9-12.7
		c5.3-2.9,11.2-3,17-3c91.6,0,183.3,0,274.9,0c0.8,0,1.6,0,2.4,0c10.9-0.3,19.8,4,26.2,12.6c4.4,6.1,6.4,13.3,6.4,21
		c-0.1,59.6,0,119.1,0,178.7c0,7.5-0.2,14.8-4.4,21.6c-3,4.8-6.6,8.9-11.4,11.6c-5.7,3.2-12,4.3-18.6,4.2c-24-0.2-48-0.1-72-0.1
		c-2.8,0-3.7,0.8-3.7,3.6c0.2,8.2,0,16.4,0.1,24.6c0,2.5-0.8,3.2-3.3,3.2c-39.3-0.1-78.5-0.1-117.8,0c-2.5,0-3.3-0.7-3.3-3.2
		c0.1-8.1-0.1-16.2,0.1-24.2c0.1-3.2-1-3.9-4-3.9c-24.1,0.1-48.2,0.1-72.3,0c-4.4,0-8.7-0.2-13.1-1.9c-10.3-4-16.4-11.4-19.7-21.7
		C33.3,283.7,33,282.1,32.7,280.5z M64.3,277.8c94,0,187.5,0,281.2,0c0-62.6,0-125,0-187.7c-1.6,0-2.9,0-4.2,0
		c-90.9,0-181.7,0-272.6,0c-4.3,0-4.4,0-4.4,4.4c0,59.7,0,119.4,0,179C64.3,274.8,64.3,276.1,64.3,277.8z"/>
	<linearGradient id="XMLID_3_" gradientUnits="userSpaceOnUse" x1="96.1661" y1="152.94" x2="189.2284" y2="152.94">
		<stop  offset="0" style="stop-color:#1541A7"/>
		<stop  offset="1" style="stop-color:#3B15A7"/>
	</linearGradient>
	<path id="XMLID_44_" class="st1" d="M189.2,184c-31.1,0-61.9,0-93.1,0c0-20.7,0-41.4,0-62.2c31,0,61.9,0,93.1,0
		C189.2,142.5,189.2,163.1,189.2,184z"/>
	<linearGradient id="XMLID_4_" gradientUnits="userSpaceOnUse" x1="220.6096" y1="215.583" x2="313.9112" y2="215.583">
		<stop  offset="0" style="stop-color:#1541A7"/>
		<stop  offset="1" style="stop-color:#3B15A7"/>
	</linearGradient>
	<path id="XMLID_43_" class="st2" d="M220.6,246.4c0-20.7,0-41,0-61.7c31.1,0,62.1,0,93.3,0c0,20.6,0,41,0,61.7
		C282.9,246.4,251.9,246.4,220.6,246.4z"/>
	<linearGradient id="XMLID_5_" gradientUnits="userSpaceOnUse" x1="96.0835" y1="230.8666" x2="189.2451" y2="230.8666">
		<stop  offset="0" style="stop-color:#1541A7"/>
		<stop  offset="1" style="stop-color:#3B15A7"/>
	</linearGradient>
	<path id="XMLID_42_" class="st3" d="M96.1,215.3c31.2,0,62.1,0,93.2,0c0,10.4,0,20.6,0,31.1c-30.9,0-61.9,0-93.2,0
		C96.1,236.1,96.1,225.9,96.1,215.3z"/>
	<linearGradient id="XMLID_7_" gradientUnits="userSpaceOnUse" x1="220.7851" y1="137.067" x2="313.9948" y2="137.067">
		<stop  offset="0" style="stop-color:#1541A7"/>
		<stop  offset="1" style="stop-color:#3B15A7"/>
	</linearGradient>
	<path id="XMLID_41_" class="st4" d="M314,121.9c0,10.2,0,20.1,0,30.3c-31.1,0-62,0-93.2,0c0-10,0-20,0-30.3
		C251.7,121.9,282.7,121.9,314,121.9z"/>
</g>
</svg>
